<svg width="79" height="79" viewBox="0 0 79 79" fill="none" xmlns="http://www.w3.org/2000/svg">
<rect x="2" y="2" width="75" height="75" rx="20" fill="white"/>
<path fill-rule="evenodd" clip-rule="evenodd" d="M40.0001 29.3333C40.7365 29.3333 41.3334 29.9302 41.3334 30.6666V49.3333C41.3334 50.0696 40.7365 50.6666 40.0001 50.6666C39.2637 50.6666 38.6667 50.0696 38.6667 49.3333V30.6666C38.6667 29.9302 39.2637 29.3333 40.0001 29.3333Z" fill="#4C87F2"/>
<path fill-rule="evenodd" clip-rule="evenodd" d="M29.3333 40.0001C29.3333 39.2637 29.9302 38.6667 30.6666 38.6667H49.3333C50.0696 38.6667 50.6666 39.2637 50.6666 40.0001C50.6666 40.7365 50.0696 41.3334 49.3333 41.3334H30.6666C29.9302 41.3334 29.3333 40.7365 29.3333 40.0001Z" fill="#4C87F2"/>
<rect x="2" y="2" width="75" height="75" rx="20" stroke="#4C87F2" stroke-width="3" stroke-linecap="round"/>
</svg>
